<svg xmlns="http://www.w3.org/2000/svg" viewBox="0 0 80 80" id="apartment-maintenance"><path d="M47 66h-3V6H8v60H5v8h42v-8zM10 8h32v28.144l-8.355 1.306 1.021 2.806-4.87 1.015.408 1.958 7.13-1.485-.979-2.694L42 38.168V66h-9V48H19v18h-9V8zm21 58H21V50h10v16zm14 6H7v-4h38v4z"></path><path d="M38 12H14v8h24v-8zm-2 6H16v-4h20v4zm2 6H14v8h24v-8zm-2 6H16v-4h20v4zm34.495-2.372 2.113-2.82-3.418-3.417-2.819 2.114a10.789 10.789 0 0 0-2.458-1.02L63.415 19h-4.83l-.498 3.486c-.856.236-1.678.577-2.458 1.019l-2.82-2.114-3.417 3.418 2.113 2.82a10.73 10.73 0 0 0-1.019 2.459L47 30.584v4.832l3.486.496c.236.857.577 1.68 1.019 2.46l-2.113 2.82 3.418 3.417 2.819-2.114c.78.443 1.602.783 2.458 1.02L58.585 47h4.83l.498-3.486a10.789 10.789 0 0 0 2.458-1.019l2.82 2.114 3.417-3.418-2.113-2.82a10.73 10.73 0 0 0 1.019-2.459L75 35.416v-4.832l-3.486-.496a10.73 10.73 0 0 0-1.019-2.46zM73 33.68l-3.138.447-.141.69a8.803 8.803 0 0 1-1.269 3.064l-.384.587 1.9 2.535-.965.965-2.535-1.9-.587.384a8.797 8.797 0 0 1-3.064 1.27l-.69.14L61.682 45h-1.362l-.447-3.137-.69-.142a8.797 8.797 0 0 1-3.063-1.269l-.587-.384-2.535 1.9-.965-.965 1.9-2.535-.384-.587a8.803 8.803 0 0 1-1.269-3.064l-.141-.69L49 33.68v-1.36l3.138-.447.141-.69c.224-1.09.65-2.12 1.269-3.064l.384-.587-1.9-2.535.965-.965 2.535 1.9.587-.384a8.797 8.797 0 0 1 3.064-1.27l.69-.14.446-3.138h1.362l.447 3.137.69.142a8.797 8.797 0 0 1 3.063 1.269l.587.384 2.535-1.9.965.965-1.9 2.535.384.587a8.803 8.803 0 0 1 1.269 3.064l.141.69L73 32.32v1.36z"></path><path d="M61 26.429c-3.623 0-6.571 2.947-6.571 6.571s2.948 6.571 6.571 6.571 6.571-2.947 6.571-6.571-2.948-6.571-6.571-6.571zm0 11.142c-2.52 0-4.571-2.05-4.571-4.571s2.05-4.571 4.571-4.571 4.571 2.05 4.571 4.571-2.05 4.571-4.571 4.571z"></path></svg>