<svg xmlns="http://www.w3.org/2000/svg" enable-background="new 0 0 64 64" viewBox="0 0 64 64" id="cctv"><path fill="#231f20" d="M58.7,25.2c-0.3-0.7-0.9-1.3-1.7-1.6l-0.6-0.2l0.9-1c0.4-0.5,0.6-1.2,0.4-1.8c-0.2-0.6-0.6-1.2-1.3-1.4
			L17.9,5.2C16.3,4.6,14.6,5.4,14,7L9.2,20.2c-0.3,0.8-0.2,1.6,0.1,2.3c0.3,0.7,0.9,1.3,1.7,1.6l8.2,3c-0.1,0.2-0.2,0.3-0.2,0.5
			v17.7c-0.4,0.3-0.7,0.6-1,1h-7V42c0-0.6-0.4-1-1-1H6c-0.6,0-1,0.4-1,1v16c0,0.6,0.4,1,1,1h4c0.6,0,1-0.4,1-1v-5.5h7
			c0.9,1.3,2.4,2.1,4,2.1c2.8,0,5-2.3,5-5.2c0-1.6-0.8-3.1-2-4.1l0-16.1l19.3,7c0.1,0,0.2,0.1,0.3,0.1c0.3,0,0.6-0.1,0.8-0.3l1-1.1
			c0,0,0,0,0.1,0l5.7,2.1c0.3,0.1,0.7,0.2,1,0.2c1.2,0,2.4-0.8,2.8-2l2.8-7.6C59.1,26.7,59.1,25.9,58.7,25.2z M9,57H7V43h2V57z
			 M25,49.4c0,1.7-1.3,3.2-3,3.2c-1.1,0-2-0.6-2.6-1.6c-0.2-0.3-0.5-0.5-0.9-0.5H11v-2.2h7.6c0.4,0,0.7-0.2,0.9-0.5
			c0.3-0.5,0.6-0.9,1.1-1.1c0.3-0.2,0.5-0.5,0.5-0.9V28.7l2,0.2l0,16.9c0,0.3,0.2,0.7,0.5,0.9C24.5,47.2,25,48.3,25,49.4z M44.3,34
			L11.7,22.2c-0.3-0.1-0.5-0.3-0.6-0.5c-0.1-0.2-0.1-0.5,0-0.8l4.8-13.2c0.2-0.4,0.5-0.7,1-0.7c0.1,0,0.2,0,0.4,0.1l38.6,14L44.3,34
			z M56.9,26.8l-2.8,7.6c-0.2,0.5-0.8,0.8-1.3,0.6l-5.1-1.8L55,25l1.4,0.5c0.3,0.1,0.5,0.3,0.6,0.5C57,26.2,57,26.5,56.9,26.8z"></path><path fill="#231f20" d="M34.2,15.3l-12.4-4.5c-0.5-0.2-1.1,0.1-1.3,0.6c-0.2,0.5,0.1,1.1,0.6,1.3l12.4,4.5c0.1,0,0.2,0.1,0.3,0.1
			c0.4,0,0.8-0.3,0.9-0.7C35,16.1,34.7,15.5,34.2,15.3z"></path></svg>