<svg xmlns="http://www.w3.org/2000/svg" enable-background="new 0 0 98 98" viewBox="0 0 98 98" id="football-goal-post"><path d="M77.5228,57.1321H97v-2H83.9287V0.6014H14.0703v54.5308H1v2h19.4761c0.4042,7.2596,5.1857,13.8047,13.0023,17.7631
		c-2.8204,8.1232,1.1016,17.1051,9.0524,20.5035H2v2h94v-2H55.465c5.7618-2.464,9.9781-8.1473,9.9686-15.1138v-0.0002v-0.0002
		c-0.0132-0.1393,0.0501-2.61-0.9131-5.3899C72.3389,70.9367,77.119,64.3962,77.5228,57.1321z M81.9287,53.5257l-8.9828-5.3086
		l5.2917-36.1824l3.6912-6.5973V53.5257z M69.4883,41.9974v-4.3896h2.9879l-0.6418,4.3896H69.4883z M71.5419,43.9974l-0.5468,3.7393
		h-1.5068v-3.7393H71.5419z M69.4883,35.6077v-4.3833h3.9213l-0.6409,4.3833H69.4883z M75.2783,18.4446l-0.6418,4.3896h-5.1481
		v-4.3896H75.2783z M69.4883,16.4446v-3.7373h6.6289l-0.5464,3.7373H69.4883z M74.3439,24.8343l-0.6419,4.3901h-4.2137v-4.3901
		H74.3439z M81.223,2.6014l-4.5353,8.106H21.3113l-4.5353-8.106H81.223z M62.9922,41.9974v-4.3896h4.4961v4.3896H62.9922z
		 M67.4883,43.9974v3.7393h-4.4961v-3.7393H67.4883z M62.9922,35.6077v-4.3833h4.4961v4.3833H62.9922z M62.9922,29.2244v-4.3901
		h4.4961v4.3901H62.9922z M62.9922,22.8343v-4.3896h4.4961v4.3896H62.9922z M62.9922,16.4446v-3.7373h4.4961v3.7373H62.9922z
		 M56.4961,41.9974v-4.3896h4.4961v4.3896H56.4961z M60.9922,43.9974v3.7393h-4.4961v-3.7393H60.9922z M56.4961,35.6077v-4.3833
		h4.4961v4.3833H56.4961z M56.4961,29.2244v-4.3901h4.4961v4.3901H56.4961z M56.4961,22.8343v-4.3896h4.4961v4.3896H56.4961z
		 M56.4961,16.4446v-3.7373h4.4961v3.7373H56.4961z M50,41.9974v-4.3896h4.4961v4.3896H50z M54.4961,43.9974v3.7393H50v-3.7393
		H54.4961z M50,35.6077v-4.3833h4.4961v4.3833H50z M50,29.2244v-4.3901h4.4961v4.3901H50z M50,22.8343v-4.3896h4.4961v4.3896H50z
		 M50,16.4446v-3.7373h4.4961v3.7373H50z M43.5039,41.9974v-4.3896H48v4.3896H43.5039z M48,43.9974v3.7393h-4.4961v-3.7393H48z
		 M43.5039,35.6077v-4.3833H48v4.3833H43.5039z M43.5039,29.2244v-4.3901H48v4.3901H43.5039z M43.5039,22.8343v-4.3896H48v4.3896
		H43.5039z M43.5039,16.4446v-3.7373H48v3.7373H43.5039z M37.0088,41.9974v-4.3896h4.4951v4.3896H37.0088z M41.5039,43.9974v3.7393
		h-4.4951v-3.7393H41.5039z M37.0088,35.6077v-4.3833h4.4951v4.3833H37.0088z M37.0088,29.2244v-4.3901h4.4951v4.3901H37.0088z
		 M37.0088,22.8343v-4.3896h4.4951v4.3896H37.0088z M37.0088,16.4446v-3.7373h4.4951v3.7373H37.0088z M30.5127,41.9974v-4.3896
		h4.4961v4.3896H30.5127z M35.0088,43.9974v3.7393h-4.4961v-3.7393H35.0088z M30.5127,35.6077v-4.3833h4.4961v4.3833H30.5127z
		 M30.5127,29.2244v-4.3901h4.4961v4.3901H30.5127z M30.5127,22.8343v-4.3896h4.4961v4.3896H30.5127z M30.5127,16.4446v-3.7373
		h4.4961v3.7373H30.5127z M26.1647,41.9974l-0.6418-4.3896h2.9899v4.3896H26.1647z M28.5127,43.9974v3.7393h-1.5088l-0.5468-3.7393
		H28.5127z M25.2304,35.6077l-0.6409-4.3833h3.9232v4.3833H25.2304z M24.297,29.2244l-0.6419-4.3901h4.8576v4.3901H24.297z
		 M23.3626,22.8343l-0.6418-4.3896h5.7919v4.3896H23.3626z M22.4283,16.4446l-0.5464-3.7373h6.6309v3.7373H22.4283z M16.0703,5.4374
		l3.6912,6.5973l5.2939,36.1977l-8.9851,5.2958V5.4374z M17.2872,55.1321l9.1542-5.3955h45.1445l9.1302,5.3955H17.2872z
		 M39.7916,72.4989l3.6266,3.6266l-1.3325,4.9724l-4.9745,1.3324l-2.533-2.532c0.061-2.2679,0.6498-4.4713,1.7286-6.4685
		L39.7916,72.4989z M38.0936,70.8825c0.2311-0.2675,0.4486-0.546,0.6994-0.7968c0.2512-0.2512,0.5301-0.4691,0.798-0.7006
		l-0.3166,1.1819L38.0936,70.8825z M52.5511,66.9897l-0.8467-0.8468c0.6889,0.1269,1.3681,0.304,2.0321,0.5292L52.5511,66.9897z
		 M56.542,67.991c2.0551,1.2589,3.5599,2.8424,4.7401,4.7521l-0.9305,3.4603l-4.9707,1.3325l-3.6279-3.6279l1.338-4.9927
		L56.542,67.991z M53.9648,78.9495l-1.332,4.9736l-4.9732,1.3324l-3.6271-3.6275l1.3326-4.9701l4.9735-1.3352L53.9648,78.9495z
		 M49.8075,73.3765l-4.976,1.3332l-3.6254-3.6245l0.9335-3.4878c2.035-1.0959,4.2696-1.6387,6.4993-1.6922l2.499,2.4995
		L49.8075,73.3765z M35.3754,85.05c-0.2371-0.6801-0.4253-1.3764-0.5585-2.0848l0.8801,0.8801L35.3754,85.05z M41.4468,92.5722
		c-1.8578-1.1454-3.4214-2.5875-4.7444-4.7559l0.9196-3.4321l4.9959-1.3412l3.6281,3.6277l-1.3358,4.9737L41.4468,92.5722z
		 M44.2021,93.9043l1.2265-0.3286l0.8963,0.8967C45.6027,94.3368,44.8932,94.1471,44.2021,93.9043z M55.8619,92.9859
		c-2.0162,1.0908-4.1536,1.6686-6.4669,1.7283l-2.5493-2.5488l1.3359-4.9741l4.9697-1.3325l3.6416,3.6416L55.8619,92.9859z
		 M59.2061,90.4993c-0.2507,0.2507-0.5288,0.4679-0.796,0.6988l0.3154-1.1807l1.181-0.3162
		C59.675,89.9692,59.457,90.2482,59.2061,90.4993z M61.6959,87.1517l-3.4886,0.934l-3.6418-3.6412l1.3359-4.9735l4.9707-1.3325
		l2.549,2.549C63.3623,82.937,62.8179,85.0748,61.6959,87.1517z M62.2831,76.7214l0.3278-1.223
		c0.2422,0.6906,0.433,1.3986,0.5686,2.1194L62.2831,76.7214z M63.7517,73.043c-4.6847-9.5546-14.6653-9.1547-14.7654-9.1848
		c-6.6564,0-12.1393,3.8934-14.7385,9.1854c-7.0439-3.6137-11.3644-9.4618-11.7709-15.9114H75.522
		C75.1159,63.5859,70.797,69.4302,63.7517,73.043z"></path></svg>