<svg xmlns="http://www.w3.org/2000/svg" viewBox="0 0 64 64" id="garden"><path d="M60.75 55.438c.345 0 .625-.28.625-.625v-7.5a.625.625 0 0 0-.625-.625h-3.125V32.313a.625.625 0 0 0-1.25 0v1.875h-27.5v-1.875a.625.625 0 0 0-1.25 0v14.375H24.5a.625.625 0 0 0-.625.625v7.5c0 .345.28.625.625.625h5v5H17.625V40.385a3.75 3.75 0 0 0 3.125-3.697v-12.5a3.75 3.75 0 0 0-7.5 0v-6.25a5 5 0 0 0-10 0v17.5a5 5 0 0 0 4.375 4.96V28.563a.625.625 0 0 1 1.25 0v11.835a5 5 0 0 0 4.375-4.96v1.25a3.75 3.75 0 0 0 3.125 3.697v20.053h-7.5v-20.04c-.205.026-.413.04-.625.04-.212 0-.42-.015-.625-.04v20.04H3.25a.625.625 0 0 0 0 1.25h57.5a.625.625 0 0 0 0-1.25h-4.375v-5h4.375zm-31.875-13.75h27.5v5h-27.5v-5zm26.25 18.75H30.75v-5h24.375v5zm-6.646-43.415a2.381 2.381 0 1 0-.222-4.758l-.892.041-.041-.892a2.381 2.381 0 1 0-4.758.222l.263 5.65 5.65-.263z"></path><path d="m49.58 24.037-.032.688-.688-.032a1.836 1.836 0 1 0-.17 3.668l4.355.202.202-4.355a1.835 1.835 0 1 0-3.667-.171z"></path><circle cx="45.75" cy="3.562" r="1.25"></circle><circle cx="53.25" cy="8.536" r="1.25"></circle><circle cx="42" cy="22.286" r="1.25"></circle><path d="M13.25 10.438H17c.345 0 .625-.28.625-.625 0-3.102 2.523-5.625 5.625-5.625s5.625 2.523 5.625 5.625c0 .345.28.625.625.625H37a.625.625 0 0 0 0-1.25h-6.903c-.317-3.499-3.267-6.25-6.847-6.25s-6.53 2.751-6.847 6.25H13.25a.625.625 0 0 0 0 1.25z"></path></svg>