<svg xmlns="http://www.w3.org/2000/svg" width="32" height="32" id="maintenance"><g style="line-height:125%"><path d="M24.996 1c-.433 0-.864.06-1.28.172V1.17a4.963 4.963 0 0 0-2.234 1.287c-1.21 1.21-1.575 2.888-1.277 4.451l-4.633 4.631a1.689 1.689 0 0 0-1.047-.375c-.43 0-.865.166-1.193.494l-.488.488-6.436-6.435.278-.277a.5.5 0 0 0 .14-.424l-.209-1.47a.5.5 0 0 0-.205-.337l-2.941-2.1a.5.5 0 0 0-.28-.095v.002a.5.5 0 0 0-.363.146l-1.682 1.68a.5.5 0 0 0-.052.644l2.1 2.942a.5.5 0 0 0 .335.205L5 6.836a.5.5 0 0 0 .426-.14l.275-.278 6.436 6.436-.487.486a1.69 1.69 0 0 0-.119 2.24l-4.635 4.635c-1.562-.297-3.239.068-4.449 1.277a4.984 4.984 0 0 0-1.285 4.813.5.5 0 0 0 .836.224l2.52-2.521 1.85.617.614 1.85-2.52 2.52a.5.5 0 0 0 .226.835A4.99 4.99 0 0 0 9.5 28.545c1.21-1.21 1.575-2.888 1.277-4.451l3.78-3.78 9.699 9.7a1.695 1.695 0 0 0 2.387 0l3.36-3.362a1.696 1.696 0 0 0 0-2.388l-9.698-9.698 3.779-3.779c1.563.298 3.239-.067 4.45-1.277a.5.5 0 0 0 .001 0 4.984 4.984 0 0 0 1.285-4.813.5.5 0 0 0-.836-.224l-2.52 2.52-1.849-.616-.617-1.85 2.522-2.52a.5.5 0 0 0-.225-.835A4.98 4.98 0 0 0 24.996 1zm-.525 1.102c.168.01.337.033.506.033l-1.905 1.904a.5.5 0 0 0-.119.512l.793 2.379a.5.5 0 0 0 .317.316l2.378.793a.5.5 0 0 0 .512-.121l1.902-1.902c-.009 1.029-.282 2.04-1.029 2.787-1.042 1.04-2.506 1.367-3.836 1.015a.5.5 0 0 0-.482.131L9.939 23.518a.5.5 0 0 0-.13.482c.351 1.33.025 2.794-1.016 3.836-.749.746-1.758 1.02-2.787 1.03l1.902-1.903a.5.5 0 0 0 .121-.512l-.793-2.379a.5.5 0 0 0-.316-.316l-2.379-.793a.5.5 0 0 0-.512.121l-1.904 1.904c.008-1.03.281-2.04 1.03-2.789 1.041-1.041 2.506-1.367 3.837-1.015a.5.5 0 0 0 .48-.131L21.044 7.484a.5.5 0 0 0 .13-.482c-.351-1.331-.026-2.795 1.016-3.838a3.966 3.966 0 0 1 1.786-1.03c.161-.042.328-.043.496-.032zm-21.237.06 2.422 1.73.145 1.012-.453.453-.453.454-1.012-.145-1.73-2.422 1.081-1.082zm11.291 10.002c.117 0 .226.038.329.096l-2.602 2.601a.662.662 0 0 1 .105-.814l1.682-1.682a.675.675 0 0 1 .486-.2zm5.073 3.11 9.699 9.697a.678.678 0 0 1 0 .974l-3.361 3.362a.675.675 0 0 1-.973 0l-9.7-9.7.973-.972 9.7 9.699.707-.707-9.7-9.7.975-.974 9.7 9.7.706-.708-9.699-9.699.973-.973z" color="#000" overflow="visible" style="line-height:125%;text-indent:0;text-align:start;text-decoration-line:none;text-decoration-style:solid;text-decoration-color:#000;text-transform:none;block-progression:tb;white-space:normal;isolation:auto;mix-blend-mode:normal;solid-color:#000;solid-opacity:1" font-family="sans-serif" font-weight="400" letter-spacing="0" word-spacing="0"></path></g></svg>