<svg xmlns="http://www.w3.org/2000/svg" enable-background="new 0 0 512 512" viewBox="0 0 512 512" id="power-plug"><path d="M301.1,175.3h144.3c13,0,23.5-10.6,23.5-23.5V23.5c0-13-10.6-23.5-23.5-23.5H301.1c-13,0-23.5,10.6-23.5,23.5v128.3C277.5,164.8,288.1,175.3,301.1,175.3z M292.5,23.5c0-4.7,3.8-8.5,8.5-8.5h144.3c4.7,0,8.5,3.8,8.5,8.5v128.3c0,4.7-3.8,8.5-8.5,8.5H301.1c-4.7,0-8.5-3.8-8.5-8.5V23.5z"></path><path d="M333.1 79.2c13 0 23.5-10.6 23.5-23.5s-10.6-23.5-23.5-23.5-23.5 10.6-23.5 23.5S320.1 79.2 333.1 79.2zM333.1 47.1c4.7 0 8.5 3.8 8.5 8.5s-3.8 8.5-8.5 8.5-8.5-3.8-8.5-8.5S328.4 47.1 333.1 47.1zM413.3 79.2c13 0 23.5-10.6 23.5-23.5s-10.6-23.5-23.5-23.5-23.5 10.6-23.5 23.5S400.3 79.2 413.3 79.2zM413.3 47.1c4.7 0 8.5 3.8 8.5 8.5s-3.8 8.5-8.5 8.5-8.5-3.8-8.5-8.5S408.6 47.1 413.3 47.1zM353.7 95.7v40.1c0 4.2 3.4 7.5 7.5 7.5h24c4.2 0 7.5-3.4 7.5-7.5V95.7c0-4.2-3.4-7.5-7.5-7.5h-24C357 88.2 353.7 91.5 353.7 95.7zM368.7 103.2h9v25h-9V103.2zM493.4 497h-80.2c-22.4 0-40.6-18.2-40.6-40.6v-48.1c0-30.7-24.9-55.6-55.6-55.6H285c-30.7 0-55.6 24.9-55.6 55.6v48.1c0 22.4-18.2 40.6-40.6 40.6h-32.1c-22.4 0-40.6-18.2-40.6-40.6v-32.6h8.5c3.6 0 6.7-2.5 7.4-6l3.6-18h5.1c4.2 0 7.5-3.4 7.5-7.5s-3.4-7.5-7.5-7.5h-2.1l1.8-9h8.3c4.2 0 7.5-3.4 7.5-7.5s-3.4-7.5-7.5-7.5h-5.3l3.4-17h1.9c30.7 0 55.6-24.9 55.6-55.6v-10.6V252v-60.1c0-4.2-3.4-7.5-7.5-7.5h-24.5v-68.6c0-10.8-8.8-19.5-19.5-19.5s-19.5 8.8-19.5 19.5v68.6h-17v-32.6c0-4.2-3.4-7.5-7.5-7.5s-7.5 3.4-7.5 7.5v32.6h-17v-68.6c0-10.8-8.8-19.5-19.5-19.5s-19.5 8.8-19.5 19.5v68.6H20.5c-4.2 0-7.5 3.4-7.5 7.5v96.2c0 30.7 24.9 55.6 55.6 55.6h1.9l3.4 17h-5.3c-4.2 0-7.5 3.4-7.5 7.5s3.4 7.5 7.5 7.5h8.3l1.8 9h-2.1c-4.2 0-7.5 3.4-7.5 7.5s3.4 7.5 7.5 7.5h5.1l3.6 18c.7 3.5 3.8 6 7.4 6h8.5v32.6c0 30.7 24.9 55.6 55.6 55.6h32.1c30.7 0 55.6-24.9 55.6-55.6v-48.1c0-22.4 18.2-40.6 40.6-40.6h32.1c22.4 0 40.6 18.2 40.6 40.6v48.1c0 30.7 24.9 55.6 55.6 55.6h80.2c4.2 0 7.5-3.4 7.5-7.5C501 500.3 497.6 497 493.4 497zM148.3 115.7c0-2.5 2-4.5 4.5-4.5s4.5 2 4.5 4.5v68.6h-9V115.7zM60.1 115.7c0-2.5 2-4.5 4.5-4.5 2.5 0 4.5 2 4.5 4.5v68.6h-9V115.7zM68.6 328.6c-22.4 0-40.6-18.2-40.6-40.6v-88.7h161.3V252v25.5 10.6c0 22.4-18.2 40.6-40.6 40.6H68.6zM85.8 343.7h45.8l-3.4 17h-39L85.8 343.7zM92.2 375.7h33l-1.8 9H94L92.2 375.7zM98.8 408.8l-1.8-9h23.3l-1.8 9H98.8z"></path><path d="M132.7,248.5h-14.9l6.2-31.1c0.6-3.2-0.9-6.5-3.8-8.1c-2.9-1.6-6.5-1-8.9,1.3l-48.1,48.1c-4.6,4.6-1.2,12.8,5.3,12.8h14.9l-6.2,31.1c-0.7,3.2,0.9,6.5,3.8,8.1c2.9,1.5,6.5,1,8.9-1.3l48.1-48.1C142.7,256.7,139.3,248.5,132.7,248.5z M96.9,281.2l3.1-15.7c0.9-4.6-2.7-9-7.4-9h-5.9l17.7-17.7l-3.1,15.7c-0.9,4.6,2.7,9,7.4,9h5.9L96.9,281.2z"></path></svg>