<svg xmlns="http://www.w3.org/2000/svg" enable-background="new 0 0 1024 1024" viewBox="0 0 1024 1024" id="security-guard"><g><rect width="48" height="40" x="176" y="396"></rect><rect width="48" height="40" x="800" y="332"></rect><path d="M479.51,322.38l21.4,14.27c3.36,2.24,7.23,3.36,11.09,3.36s7.73-1.12,11.09-3.36l21.4-14.27
		c22.23-14.82,35.51-39.62,35.51-66.35V240c0-5.3-2.11-10.39-5.86-14.14l-4.69-4.69c-3.52-3.52-5.46-8.2-5.46-13.17
		c0-5.3-2.11-10.39-5.86-14.14c-3.75-3.75-8.84-5.86-14.14-5.86h-64c-5.3,0-10.39,2.11-14.14,5.86c-3.75,3.75-5.86,8.84-5.86,14.14
		c0,4.98-1.94,9.65-5.46,13.17l-4.69,4.69c-3.75,3.75-5.86,8.84-5.86,14.14v16.03C444,282.75,457.27,307.55,479.51,322.38z
		 M484,248.25c5.59-5.91,9.82-12.79,12.52-20.25h30.97c2.7,7.46,6.93,14.34,12.52,20.25v7.78c0,13.32-6.62,25.68-17.69,33.06
		L512,295.96l-10.31-6.87c-11.08-7.39-17.69-19.75-17.69-33.06V248.25z"></path><path d="M812.97,591.24L668.83,543.2l-26.79-40.19c0.33-0.56,0.67-1.11,1-1.68C673.7,448.48,692,380.69,692,320v-42.46l37.25-62.09
		c5.24-8.74,5.71-19.42,1.25-28.58c-4.46-9.15-13.16-15.37-23.24-16.62l-20.21-2.53c-29-3.62-57.71-10.3-85.34-19.84
		c-27.64-9.54-54.36-22-79.41-37.03c-6.33-3.8-14.25-3.8-20.58,0c-50.68,30.41-106.11,49.54-164.77,56.88l-20.18,2.53
		c-10.11,1.26-18.8,7.47-23.26,16.62c-4.46,9.16-4,19.84,1.25,28.57L332,277.54V320c0,60.69,18.3,128.48,48.96,181.33
		c0.33,0.57,0.67,1.11,1,1.68l-26.79,40.19l-144.13,48.04C149.4,611.78,108,669.23,108,734.19V896h40V734.19
		c0-38.61,19.92-73.61,51.51-93.55l6.8,16.99c9.83,24.56,33.53,39.72,58.71,39.72c6.62,0,13.34-1.05,19.93-3.25l93.09-31.03
		l18.8,62.68c1.7,5.65,5.8,10.27,11.22,12.61c2.54,1.1,5.23,1.64,7.93,1.64c3.07,0,6.13-0.71,8.94-2.11L512,694.36l87.06,43.53
		c2.81,1.41,5.88,2.11,8.94,2.11c2.7,0,5.4-0.54,7.93-1.64c5.42-2.34,9.53-6.96,11.22-12.61l18.8-62.68l93.09,31.03
		c6.6,2.2,13.31,3.25,19.93,3.25c25.18,0,48.88-15.16,58.71-39.72l6.8-16.99c31.59,19.94,51.51,54.94,51.51,93.55V896h40V734.19
		C916,669.23,874.6,611.78,812.97,591.24z M512,637.12l-32.23-46.04C490.33,594.33,501.1,596,512,596c10.9,0,21.67-1.67,32.23-4.91
		L512,637.12z M341.91,207.42c60.26-7.53,117.43-26.45,170.09-56.27c24.41,13.8,50.14,25.4,76.65,34.55
		c30.25,10.45,61.69,17.76,93.44,21.72l4.97,0.62l-32.2,53.67c-1.86,3.11-2.85,6.66-2.85,10.29v46l-13.89-6.94
		C621.78,343.71,588.96,364,552.45,364h-80.89c-36.51,0-69.34-20.29-85.67-52.94L372,318v-46c0-3.63-0.98-7.18-2.85-10.29
		l-32.2-53.67L341.91,207.42z M375.43,364.1c7.42,7.44,15.71,14.04,24.74,19.62c21.47,13.27,46.15,20.28,71.38,20.28h80.89
		c25.23,0,49.92-7.01,71.38-20.28c9.03-5.58,17.32-12.18,24.74-19.62C634.28,459.02,577.18,556,512,556S389.72,459.02,375.43,364.1z
		 M272.3,656.15c-11.63,3.88-24.3-2-28.85-13.38l-7.12-17.8l118.44-39.48l11.77,39.25L272.3,656.15z M428.32,691.48l-38.46-128.21
		l10.54-15.81l81.92,117.03L428.32,691.48z M595.68,691.48l-54-27l81.92-117.03l10.54,15.81L595.68,691.48z M751.7,656.15
		l-94.24-31.41l11.77-39.25l118.44,39.48l-7.12,17.8C776,654.15,763.33,660.03,751.7,656.15z"></path><path d="M512.84 748H512c-11.05 0-20 8.95-20 20s8.95 20 20 20h.84c11.05 0 20-8.95 20-20S523.89 748 512.84 748zM512.84 844H512c-11.05 0-20 8.95-20 20s8.95 20 20 20h.84c11.05 0 20-8.95 20-20S523.89 844 512.84 844z"></path><rect width="40" height="96" x="268" y="800"></rect><rect width="40" height="96" x="716" y="800"></rect></g></svg>